<svg xmlns="http://www.w3.org/2000/svg" width="27.625" height="25.75" viewBox="0 0 27.625 25.75">
  <defs>
    <style>
      .cls-1 {
        fill: #bbb;
        fill-rule: evenodd;
      }
    </style>
  </defs>
  <path id="SUB" class="cls-1" d="M708.732,442.138H690.323a4.657,4.657,0,0,0-4.6,4.683v11.708a4.657,4.657,0,0,0,4.6,4.683v3.511a1.149,1.149,0,0,0,1.956.821l4.257-4.332h12.2a4.657,4.657,0,0,0,4.6-4.683V446.821A4.657,4.657,0,0,0,708.732,442.138Zm-9.514,15.689a1.544,1.544,0,0,1-.7.724,5.713,5.713,0,0,1-1.666.647,8.571,8.571,0,0,1-1.974.235,7.978,7.978,0,0,1-3.871-.882,5.981,5.981,0,0,1-2.474-2.488,7.86,7.86,0,0,1-.858-3.763,8.267,8.267,0,0,1,.492-2.92,6.107,6.107,0,0,1,3.7-3.694,8.571,8.571,0,0,1,3.014-.5,8.713,8.713,0,0,1,1.839.2,6.034,6.034,0,0,1,1.685.617,1.678,1.678,0,0,1,.752.746,1.6,1.6,0,0,1,.144.92,1.868,1.868,0,0,1-.337.843,1.306,1.306,0,0,1-.693.5,1.224,1.224,0,0,1-.925-0.127,6.592,6.592,0,0,0-1.146-.421,4.67,4.67,0,0,0-1.185-.147,3.921,3.921,0,0,0-1.993.461,2.9,2.9,0,0,0-1.2,1.342,5.2,5.2,0,0,0-.4,2.175,5.262,5.262,0,0,0,.4,2.184,2.894,2.894,0,0,0,1.2,1.353,3.942,3.942,0,0,0,1.993.46,5.087,5.087,0,0,0,1.08-.127,4.912,4.912,0,0,0,1.136-.4,1.572,1.572,0,0,1,1.03-.137,1.345,1.345,0,0,1,.732.471,1.771,1.771,0,0,1,.356.812A1.563,1.563,0,0,1,699.218,457.827Zm12.018,0a1.549,1.549,0,0,1-.7.724,5.713,5.713,0,0,1-1.666.647,8.578,8.578,0,0,1-1.974.235,7.984,7.984,0,0,1-3.872-.882,5.985,5.985,0,0,1-2.473-2.488,7.86,7.86,0,0,1-.858-3.763,8.289,8.289,0,0,1,.491-2.92,6.265,6.265,0,0,1,1.425-2.253,6.2,6.2,0,0,1,2.273-1.441,8.571,8.571,0,0,1,3.014-.5,8.713,8.713,0,0,1,1.839.2,6.034,6.034,0,0,1,1.685.617,1.683,1.683,0,0,1,.752.746,1.6,1.6,0,0,1,.144.92,1.858,1.858,0,0,1-.338.843,1.3,1.3,0,0,1-.693.5,1.222,1.222,0,0,1-.924-0.127,6.622,6.622,0,0,0-1.146-.421,4.67,4.67,0,0,0-1.185-.147,3.915,3.915,0,0,0-1.992.461,2.893,2.893,0,0,0-1.2,1.342,5.2,5.2,0,0,0-.4,2.175,5.262,5.262,0,0,0,.4,2.184,2.891,2.891,0,0,0,1.2,1.353,3.935,3.935,0,0,0,1.992.46,5.087,5.087,0,0,0,1.08-.127,4.9,4.9,0,0,0,1.136-.4,1.573,1.573,0,0,1,1.03-.137,1.342,1.342,0,0,1,.732.471,1.771,1.771,0,0,1,.356.812A1.563,1.563,0,0,1,711.236,457.827Z" transform="translate(-685.719 -442.125)"/>
</svg>
